<?xml version="1.0" encoding="UTF-8" standalone="no"?>
<!-- Created with Inkscape (http://www.inkscape.org/) -->

<svg
   xmlns:dc="http://purl.org/dc/elements/1.1/"
   xmlns:cc="http://creativecommons.org/ns#"
   xmlns:rdf="http://www.w3.org/1999/02/22-rdf-syntax-ns#"
   xmlns:svg="http://www.w3.org/2000/svg"
   xmlns="http://www.w3.org/2000/svg"
   xmlns:sodipodi="http://sodipodi.sourceforge.net/DTD/sodipodi-0.dtd"
   xmlns:inkscape="http://www.inkscape.org/namespaces/inkscape"
   version="1.1"
   id="svg2"
   width="277"
   height="303"
   viewBox="0 0 277 303"
   sodipodi:docname="scales.svg"
   inkscape:version="0.92.1 r15371">
  <metadata
     id="metadata8">
    <rdf:RDF>
      <cc:Work
         rdf:about="">
        <dc:format>image/svg+xml</dc:format>
        <dc:type
           rdf:resource="http://purl.org/dc/dcmitype/StillImage" />
        <dc:title></dc:title>
      </cc:Work>
    </rdf:RDF>
  </metadata>
  <defs
     id="defs6" />
  <sodipodi:namedview
     pagecolor="#ffffff"
     bordercolor="#666666"
     borderopacity="1"
     objecttolerance="10"
     gridtolerance="10"
     guidetolerance="10"
     inkscape:pageopacity="0"
     inkscape:pageshadow="2"
     inkscape:window-width="1920"
     inkscape:window-height="1017"
     id="namedview4"
     showgrid="false"
     inkscape:zoom="0.77887789"
     inkscape:cx="138.5"
     inkscape:cy="151.5"
     inkscape:window-x="-8"
     inkscape:window-y="-8"
     inkscape:window-maximized="1"
     inkscape:current-layer="svg2" />
  <path
     style="fill:#180e2c;fill-opacity:1"
     d="m 138.70278,294.81767 c -2.7939,-5.75068 -7.52308,-11.04442 -11.24315,-12.58532 -2.90733,-1.20426 -3.13359,-1.08792 -7.64701,3.93209 -6.75585,7.51413 -12.82671,10.31294 -23.553966,10.85893 -7.49379,0.38142 -9.318,0.13708 -13.27381,-1.77789 -15.59614,-7.54996 -20.42421,-27.49345 -9.73202,-40.2004 4.96562,-5.90131 16.27593,-8.62703 23.87848,-5.75459 6.704436,2.53311 11.545866,9.68469 11.545866,17.05512 0,8.1851 -6.13398,14.88126 -13.631896,14.88126 -5.45272,0 -8.88403,-6.6141 -6.16206,-11.87781 1.81905,-3.51766 4.94678,-4.64801 10.15671,-3.67062 3.395056,0.63691 3.543196,0.55203 2.862226,-1.63995 -3.679716,-11.84461 -17.878116,-13.17317 -25.893956,-2.42292 -1.67146,2.24163 -2.06179,4.24764 -2.06179,10.59598 0,7.22964 0.23478,8.12586 3.05797,11.67309 8.93373,11.22492 28.595316,11.33277 39.140806,0.21469 10.50723,-11.07774 10.65551,-30.10998 0.33986,-43.62246 -4.39873,-5.7619 -3.74787,-7.17693 0.91992,-2 4.25876,4.72328 7.92868,12.49102 9.24461,19.56706 1.13596,6.1083 2.2939,7.65713 3.45755,4.62471 0.39669,-1.03377 1.37436,0.3521 2.90477,4.1176 2.39715,5.89805 5.88652,10.44063 8.01993,10.44063 1.90778,0 6.02841,-5.42195 7.95546,-10.46787 1.40565,-3.68064 2.00041,-4.32779 3.12195,-3.39699 1.79249,1.48763 1.82624,1.42813 3.19616,-5.63514 0.64004,-3.3 2.28613,-8.25 3.65797,-11 2.94383,-5.90121 9.99213,-14.32424 11.07786,-13.23852 0.41766,0.41766 -0.38901,1.99219 -1.7926,3.49895 -9.89486,10.62223 -13.2875,26.65388 -8.21145,38.80257 4.90736,11.74496 19.39011,19.32034 31.41973,16.43448 11.2408,-2.69663 17.58618,-11.07172 16.78459,-22.15352 -0.63176,-8.73401 -5.66316,-14.48007 -13.61279,-15.54633 -5.46539,-0.73307 -9.44752,1.03458 -12.60947,5.59727 -3.71547,5.36143 -3.40744,6.10972 2.23975,5.44089 4.52077,-0.53542 4.9809,-0.36994 7.5886,2.72913 2.18958,2.60218 2.65104,3.94722 2.1844,6.3671 -1.87225,9.70919 -15.83258,7.90568 -20.03124,-2.58781 -2.89879,-7.24481 -0.27808,-14.90219 7.00017,-20.45358 5.09488,-3.88606 15.12473,-4.61524 21.15642,-1.5381 11.81041,6.02522 15.66923,21.32088 8.64038,34.24889 -5.12665,9.42934 -14.14254,13.61155 -27.31207,12.66928 -8.12242,-0.58116 -15.47103,-4.20362 -20.89465,-10.29993 -4.84627,-5.44735 -5.60889,-5.80062 -8.86522,-4.10665 -3.81127,1.98266 -6.69835,5.25386 -10.0562,11.39418 l -2.84431,5.20122 z M 111.4464,246.23563 c -4.48805,-3.49487 -18.804096,-9.0379 -35.311636,-13.6723 -20.84179,-5.85121 -28.2528,-9.40122 -38.23564,-18.31558 -13.16089,-11.75226 -26.13959,-26.69376 -29.9860105,-34.52088 -7.50549998,-15.27301 -6.86734,-33.8317 1.75191,-50.94772 4.6089505,-9.15241 16.7880905,-20.70496 30.4700305,-28.902393 12.97742,-7.77532 18.34038,-13.23697 21.08609,-21.47411 1.04056,-3.12168 2.30443,-5.67578 2.80859,-5.67578 1.39203,0 1.71483,7.53143 0.49761,11.61007 -0.59255,1.98554 -3.53172,6.93554 -6.53148,11 -3.50159,4.744403 -5.69293,8.821893 -6.12122,11.389933 -1.0785,6.4667 -4.15526,13.71827 -7.58462,17.87602 -2.92894,3.55105 -13.39588,9.62117 -16.59362,9.62319 -2.44056,0.002 -1.19937,1.61732 2.18149,2.83986 3.39374,1.22719 9.56851,7.23017 9.56851,9.30231 0,0.58948 -3.09477,4.28632 -6.87726,8.2152 -7.91971,8.22621 -9.75331,11.37777 -10.67882,18.35462 -1.55153,11.69605 4.18113,24.88364 16.04479,36.90989 9.66857,9.80109 17.39044,13.83102 40.01129,20.8813 15.57775,4.85515 31.925416,12.10024 35.021096,15.52092 2.25721,2.4942 1.69366,2.48881 -1.5211,-0.0146 z M 15.512044,181.57064 c -1.84354,-6.56035 -2.44,-23.22163 -1.11257,-31.078 1.61865,-9.57995 7.05517,-20.51983 15.9664,-32.12908 3.95298,-5.14982 6.99987,-9.55068 6.77086,-9.7797 -0.22902,-0.22901 -4.02036,3.39096 -8.42522,8.04439 -6.1079,6.45258 -9.24692,10.87109 -13.22509,18.61576 l -5.21626,10.15499 0.4034,15.16394 c 0.35003,13.15779 0.71136,15.86161 2.73123,20.43748 2.64587,5.99404 3.71252,6.28267 2.10725,0.57022 z m 153.750106,64.37824 c 2.49775,-3.00961 18.62769,-10.01383 36.27095,-15.7502 9.77199,-3.17718 20.45164,-7.20745 23.73257,-8.95616 18.04653,-9.61871 32.45953,-31.3363 30.88985,-46.54502 -0.84009,-8.13974 -3.88826,-13.8234 -11.16591,-20.82012 -3.59876,-3.45985 -6.54321,-6.80595 -6.54321,-7.43578 0,-2.13343 6.11769,-8.12783 9.56851,-9.37566 1.88732,-0.68247 3.43149,-1.50726 3.43149,-1.83287 0,-0.32562 -2.48228,-1.43578 -5.51618,-2.46704 -10.24909,-3.48377 -16.8973,-11.76973 -19.5603,-24.37887 -0.74028,-3.50518 -2.90699,-7.9715 -6.30657,-12.999993 -2.84836,-4.21317 -5.72741,-8.91897 -6.39789,-10.45735 -1.42558,-3.27089 -1.63424,-12.32832 -0.30297,-13.15109 0.50385,-0.31139 1.85815,2.26475 3.00957,5.72476 1.15142,3.46001 3.50248,8.00028 5.22458,10.08948 1.7221,2.08921 9.48834,7.98001 17.25831,13.090673 20.77691,13.66591 30.80022,25.66692 34.69713,41.54323 1.88352,7.6736 1.66575,23.17647 -0.42387,30.17569 -2.63254,8.81776 -10.83823,20.05431 -25.14191,34.42838 -15.51816,15.59453 -19.67555,17.9585 -43.71932,24.85962 -18.6768,5.36068 -27.41051,8.5542 -34.81425,12.72997 -3.02152,1.70416 -4.90728,2.39192 -4.19058,1.52835 z M 271.0151,171.22687 c 1.91863,-8.92978 1.77676,-15.32933 -0.5407,-24.39052 -2.8089,-10.98268 -8.0215,-20.1935 -16.73718,-29.57509 -4.14765,-4.46455 -7.75137,-7.90717 -8.00826,-7.65028 -0.25689,0.25689 2.56921,4.43806 6.28024,9.29148 15.90313,20.79874 18.98845,35.16788 13.91901,64.82441 -0.96906,5.66902 3.59037,-5.53484 5.08689,-12.5 z m -232.595046,35.25 c -9.1725,-10.38274 -10.43107,-12.94524 -10.82392,-22.03794 -0.19694,-4.55836 -0.0713,-9.8166 0.27921,-11.68497 1.08776,-5.79824 8.54942,-14.6991 17.13788,-20.44341 8.80125,-5.88663 9.83375,-5.60996 8.36685,2.24199 -1.25101,6.69633 -3.61522,10.22747 -8.62813,12.88681 -4.80022,2.54651 -5.23603,3.35742 -2.30448,4.28786 3.67021,1.16488 4.20848,3.92323 1.49053,7.63814 -5.77568,7.89422 -6.48391,9.4125 -6.46589,13.86152 0.01,2.475 0.94978,6.525 2.08836,9 2.79537,6.07651 3.9148,9 3.44618,9 -0.21465,0 -2.27861,-2.1375 -4.58659,-4.75 z m -4.9287,-15.46863 c -1.78168,-11.15285 1.09572,-21.2129 8.7399,-30.55677 1.92373,-2.35146 3.26457,-4.50851 2.97965,-4.79344 -0.87262,-0.87262 -8.81531,8.76804 -11.59094,14.06884 -2.29258,4.37828 -2.60574,6.1191 -2.5185,14 0.0902,8.14512 1.60637,15.5719 2.91242,14.26585 0.28134,-0.28134 0.0462,-3.42436 -0.52253,-6.98448 z M 238.4464,210.9391 c 0,-0.29296 1.34964,-3.38556 2.99921,-6.87244 4.34747,-9.18977 4.19081,-15.22621 -0.5422,-20.89125 -5.4571,-6.53171 -5.82486,-7.58069 -3.47993,-9.92562 1.11261,-1.11261 2.47292,-2.02292 3.02292,-2.02292 2.08582,0 0.87876,-1.80758 -2.0046,-3.00191 -4.83841,-2.00413 -8.69021,-7.21102 -9.99937,-13.51721 -0.64391,-3.10172 -0.87975,-5.93049 -0.52408,-6.28616 1.28406,-1.28407 12.15061,5.36871 17.61793,10.78615 5.94744,5.89319 8.17768,10.77972 9.41712,20.63321 0.93214,7.41047 -0.80803,12.33523 -7.49392,21.20807 -5.50356,7.30377 -9.01308,11.15478 -9.01308,9.89008 z m 11.8424,-25.71847 c 0.30711,-8.8886 0.0823,-10.47838 -2.18005,-15.42011 -2.37304,-5.1834 -11.40355,-16.16578 -12.44024,-15.12909 -0.26146,0.26146 1.32113,2.63089 3.51687,5.26541 7.70362,9.24305 8.76102,12.31955 8.76102,25.49003 0,14.47955 1.84061,14.31749 2.3424,-0.20624 z M 60.446404,105.60778 c 0,-0.8905 2.42912,-5.503 5.39804,-10.250003 6.8745,-10.99163 8.01645,-14.64689 7.28851,-23.32976 -1.04429,-12.45631 -7.31307,-19.801146 -16.90018,-19.801146 -5.9916,0 -8.28582,1.131367 -10.33676,5.097436 -2.16102,4.17895 -1.4191,5.453 1.73204,2.97432 3.59997,-2.83174 7.91322,-2.66413 10.8107,0.4201 7.75536,8.2552 -5.03775,18.61659 -13.06927,10.58507 -2.53376,-2.53376 -2.92308,-3.66782 -2.92308,-8.51469 0,-4.91603 0.39266,-6.01909 3.25,-9.129778 5.59045,-6.08615 14.4946,-6.51432 22.68968,-1.091071 7.0516,4.666529 11.20442,17.958549 9.13952,29.253029 -1.46473,8.0117 -6.25737,17.43038 -11.09177,21.797973 -4.36171,3.94054 -5.98743,4.48047 -5.98743,1.98852 z M 216.2312,104.32601 c -11.09571,-9.798823 -15.67964,-29.648733 -9.8374,-42.599143 5.69209,-12.617565 20.53009,-17.022086 29.32492,-8.704826 7.97785,7.544646 4.12289,21.204826 -5.9841,21.204826 -4.85349,0 -9.77758,-4.90119 -8.81618,-8.77516 1.67877,-6.76462 8.00347,-9.158617 13.62359,-5.15674 4.10016,2.91957 3.92668,0.16584 -0.29226,-4.639268 -3.10465,-3.535998 -3.36402,-3.628656 -9.01344,-3.220014 -10.0693,0.728347 -15.67284,7.422512 -16.55698,19.779472 -0.61485,8.59336 1.16915,14.10951 7.7657,24.01171 6.82882,10.250853 6.72386,14.225963 -0.21385,8.099143 z M 106.9464,74.087397 c 21.75553,-16.21787 23.29625,-44.021352 3.1893,-57.553368 -11.819606,-7.9546214 -28.323026,-4.258674 -34.439296,7.712698 -2.61983,5.12779 -3.02226,13.59521 -0.84501,17.779804 5.36438,10.31018 19.33038,12.090645 25.205136,3.213293 3.19291,-4.824825 2.43199,-6.435211 -2.656256,-5.621568 -4.86447,0.777861 -6.68097,0.03702 -8.49085,-3.462906 -2.09101,-4.043564 -1.81657,-6.665839 0.99153,-9.473934 4.81193,-4.811938 13.399426,-2.50518 17.065426,4.584091 1.8747,3.62527 1.91254,12.232766 0.0693,15.761024 -1.89416,3.625697 -6.45575,7.83374 -9.904376,9.136722 -1.5483,0.584994 -5.05026,1.063614 -7.78212,1.063614 -12.3609,0 -20.58462,-8.167299 -21.65539,-21.506831 -0.62649,-7.804738 2.22885,-14.833894 8.29838,-20.428592 5.9928,-5.5239684 10.57924,-7.2838024 19.14453,-7.3458324 6.128666,-0.04439 8.149196,0.419991 13.684816,3.1451674 4.05525,1.996394 8.17263,5.063698 10.96246,8.166666 2.45737,2.733184 5.19854,4.969426 6.0915,4.969426 2.37939,0 10.07079,-8.091344 12.80443,-13.470248 l 2.36585,-4.6552184 2.40217,5.1287284 c 2.45003,5.230925 8.18562,11.286588 11.76649,12.42311 1.53199,0.486234 3.45333,-0.832024 8.36054,-5.736264 7.49479,-7.49025 12.99756,-9.7732014 23.63814,-9.8068314 8.25635,-0.02609 12.47473,1.536099 18.27978,6.7695534 8.70773,7.850322 11.33213,19.761787 6.5761,29.84717 -4.02965,8.545044 -10.28631,12.499996 -19.77474,12.499996 -16.00818,0 -25.14199,-16.457276 -15.75615,-28.389428 3.4184,-4.345798 7.40421,-5.932042 11.50496,-4.57867 6.57441,2.16975 8.08235,8.715415 3.21208,13.943028 -1.81607,1.949326 -2.73196,2.160264 -6.95022,1.600692 -5.74001,-0.761438 -6.10703,0.122757 -2.34749,5.655407 3.20015,4.709442 8.25741,6.446964 14.14794,4.860807 8.31906,-2.240091 12.34104,-7.812879 12.34104,-17.099551 0,-19.751278 -24.72839,-27.9319484 -40.78755,-13.49338 -7.24863,6.51714 -9.56366,11.979219 -9.53677,22.501099 0.0311,12.188972 2.67714,18.576616 11.14499,26.904856 4.67912,4.60198 5.59717,5.86867 3.26144,4.5 -4.44763,-2.60617 -11.44851,-10.24257 -14.03102,-15.30471 -1.17396,-2.301162 -2.60905,-6.752578 -3.18908,-9.892038 -1.28618,-6.961561 -1.65666,-7.623419 -3.4392,-6.144042 -1.10335,0.915696 -1.51844,0.767404 -1.96341,-0.701442 -1.20469,-3.976655 -4.74992,-10.286922 -6.93007,-12.335068 l -2.28531,-2.146943 -3.13004,3.797273 c -1.72151,2.088499 -3.86382,5.718673 -4.76067,8.067053 -1.24474,3.259307 -1.93175,4.01989 -2.90295,3.213863 -1.63475,-1.356722 -1.97593,-0.708002 -3.44019,6.541198 -0.66657,3.3 -2.38715,8.181756 -3.82351,10.848346 -2.8053,5.20799 -10.64296,12.86873 -15.624,15.27131 l -3.06266,1.47725 z m 16.66667,-57.860526 c 0.18333,-0.55 0.78333,-1 1.33333,-1 0.55,0 1.15,0.45 1.33333,1 0.18334,0.55 -0.41666,1 -1.33333,1 -0.91667,0 -1.51667,-0.45 -1.33333,-1 z m 31.83333,0.05902 c 0,-0.517541 0.45,-1.219098 1,-1.559017 0.55,-0.339919 1,0.08352 1,0.940983 0,0.857459 -0.45,1.559017 -1,1.559017 -0.55,0 -1,-0.423442 -1,-0.940983 z m 5,-6.6180334 c 0,-0.857459 0.45734,-1.276365 1.01631,-0.930902 0.55897,0.345464 0.75742,1.047021 0.44098,1.5590174 -0.85723,1.387043 -1.45729,1.12841 -1.45729,-0.6281154 z m -40.5,-0.440983 c 0.33992,-0.55 0.81648,-1 1.05902,-1 0.24254,0 0.44098,0.45 0.44098,1 0,0.55 -0.47656,1.0000004 -1.05902,1.0000004 -0.58246,0 -0.7809,-0.4500004 -0.44098,-1.0000004 z m -6,-5 c 0.33992,-0.55 0.81648,-1 1.05902,-1 0.24254,0 0.44098,0.45 0.44098,1 0,0.55 -0.47656,1 -1.05902,1 -0.58246,0 -0.7809,-0.45 -0.44098,-1 z m 52.01008,-0.01631 c 0.34546,-0.558971 1.04702,-0.757414 1.55902,-0.440983 1.38704,0.85724 1.12841,1.457295 -0.62812,1.457295 -0.85746,0 -1.27636,-0.45734 -0.9309,-1.016312 z"
     id="path4504"
     inkscape:connector-curvature="0" />
</svg>
